<svg width="353" height="233" viewBox="0 0 353 233" fill="none" xmlns="http://www.w3.org/2000/svg">
  <path
    d="M176.5 206.258C159.834 206.258 141.038 202.562 126.222 196.389C120.787 194.1 116.133 190.397 112.328 187.475C112.14 187.33 111.914 187.242 111.678 187.219C111.441 187.196 111.203 187.239 110.99 187.345C110.777 187.45 110.598 187.613 110.473 187.815C110.347 188.017 110.281 188.249 110.281 188.487V192.492C110.281 201.428 117.76 209.435 131.338 215.038C143.483 220.052 159.522 222.812 176.5 222.812C193.478 222.812 209.514 220.052 221.662 215.038C235.24 209.441 242.719 201.428 242.719 192.492V188.487C242.719 188.249 242.653 188.017 242.527 187.815C242.402 187.613 242.223 187.45 242.01 187.345C241.797 187.239 241.559 187.196 241.322 187.219C241.086 187.242 240.86 187.33 240.672 187.475C236.867 190.394 232.213 194.1 226.775 196.389C211.959 202.562 193.166 206.258 176.5 206.258ZM242.719 110.276C242.461 101.473 235.021 93.5936 221.707 88.0382C209.527 82.9763 193.481 80.1875 176.5 80.1875C159.519 80.1875 143.473 82.9763 131.322 88.0382C118.021 93.5809 110.581 101.444 110.31 110.225L110.281 115.844C110.281 117.884 111.937 121.09 114.939 123.717C118.482 126.814 123.741 129.871 130.15 132.545C143.785 138.244 161.114 141.631 176.5 141.631C191.886 141.631 209.215 138.231 222.85 132.532C229.259 129.858 234.518 126.802 238.061 123.704C241.063 121.093 242.719 117.888 242.719 115.844V110.276Z"
    fill="#E9E9E9"
  />
  <path
    d="M226.775 141.949C211.962 148.135 193.166 151.819 176.5 151.819C159.834 151.819 141.038 148.135 126.222 141.949C120.787 139.673 116.133 135.968 112.328 133.035C112.139 132.89 111.912 132.802 111.675 132.779C111.437 132.757 111.198 132.801 110.984 132.908C110.771 133.015 110.592 133.18 110.468 133.384C110.343 133.587 110.279 133.822 110.281 134.061V143.86C110.281 145.9 111.937 148.469 114.939 151.096C118.482 154.197 123.742 157.25 130.15 159.927C143.785 165.616 161.114 169.01 176.5 169.01C191.886 169.01 209.215 165.61 222.85 159.914C229.259 157.237 234.518 154.184 238.061 151.083C241.063 148.466 242.719 145.9 242.719 143.86V134.061C242.719 133.823 242.653 133.59 242.527 133.388C242.402 133.186 242.223 133.024 242.01 132.918C241.797 132.813 241.559 132.769 241.322 132.792C241.086 132.815 240.861 132.904 240.672 133.048C236.867 135.968 232.213 139.673 226.775 141.949Z"
    fill="#E9E9E9"
  />
  <path
    d="M226.775 169.328C211.959 175.508 193.166 179.197 176.5 179.197C159.834 179.197 141.038 175.508 126.222 169.328C120.787 167.046 116.133 163.34 112.328 160.414C112.139 160.27 111.913 160.181 111.676 160.158C111.439 160.135 111.201 160.18 110.987 160.286C110.774 160.392 110.595 160.556 110.47 160.758C110.345 160.961 110.28 161.195 110.281 161.433V170.92C110.281 172.961 111.937 175.527 114.936 178.15C118.479 181.251 123.742 184.304 130.15 186.981C143.785 192.67 161.111 196.071 176.5 196.071C191.89 196.071 209.215 192.67 222.85 186.975C229.259 184.298 234.518 181.245 238.061 178.144C241.063 175.517 242.719 172.948 242.719 170.92V161.433C242.719 161.195 242.653 160.963 242.527 160.761C242.402 160.559 242.223 160.396 242.01 160.291C241.797 160.185 241.559 160.142 241.322 160.165C241.086 160.188 240.86 160.276 240.672 160.421C236.867 163.34 232.213 167.046 226.775 169.328Z"
    fill="#E9E9E9"
  />
  <path
    d="M176.737 172.301C177.496 170.961 179.42 170.945 180.201 172.272L206.786 217.433C207.513 218.667 206.744 220.238 205.322 220.408C199.675 221.083 187.236 222.445 178.444 222.5C169.958 222.552 157.955 221.428 152.429 220.857C151.004 220.71 150.212 219.153 150.918 217.907L176.737 172.301Z"
    fill="#F4F4F4"
  />
  <path
    d="M177.602 205.274L177.386 196.4H179.438L179.222 205.274H177.602ZM178.466 209.108C178.094 209.108 177.788 208.994 177.548 208.766C177.32 208.526 177.206 208.244 177.206 207.92C177.206 207.584 177.32 207.302 177.548 207.074C177.788 206.834 178.094 206.714 178.466 206.714C178.814 206.714 179.102 206.834 179.33 207.074C179.57 207.302 179.69 207.584 179.69 207.92C179.69 208.244 179.57 208.526 179.33 208.766C179.102 208.994 178.814 209.108 178.466 209.108Z"
    fill="#A5ABB3"
  />
  <circle cx="262.5" cy="6.5" r="5.5" stroke="#A5ABB3" stroke-width="2" />
  <circle cx="6.5" cy="21.5" r="5.5" stroke="#A5ABB3" stroke-width="2" />
  <circle cx="24.5" cy="82.5" r="5.5" fill="#A5ABB3" stroke="#A5ABB3" stroke-width="2" />
  <circle cx="335.5" cy="180.5" r="5.5" fill="#A5ABB3" stroke="#A5ABB3" stroke-width="2" />
  <path
    d="M346.973 72.2754L346.973 82.3326"
    stroke="#A5ABB3"
    stroke-width="2"
    stroke-linecap="round"
  />
  <path d="M341.945 77.3047H352.002" stroke="#A5ABB3" stroke-width="2" stroke-linecap="round" />
  <path
    d="M115.656 11.2129L115.656 21.2701"
    stroke="#A5ABB3"
    stroke-width="2"
    stroke-linecap="round"
  />
  <path d="M110.629 16.2422H120.686" stroke="#A5ABB3" stroke-width="2" stroke-linecap="round" />
  <path
    d="M17.957 152.732L17.957 162.79"
    stroke="#A5ABB3"
    stroke-width="2"
    stroke-linecap="round"
  />
  <path d="M12.9297 157.76H22.9868" stroke="#A5ABB3" stroke-width="2" stroke-linecap="round" />
</svg>
