<svg width="64" height="64" viewBox="0 0 64 64" fill="none" xmlns="http://www.w3.org/2000/svg">
<g id="HubSpot logo" clip-path="url(#clip0_2188_10375)">
<path id="Vector" d="M58.7264 30.4009C57.3006 27.9671 55.2662 25.9462 52.823 24.5365C50.9578 23.4525 49.029 22.764 46.8513 22.4662V14.6682C47.9074 14.2306 48.8079 13.4861 49.4364 12.5312C50.0649 11.5763 50.3925 10.4548 50.3767 9.31166C50.3806 8.53973 50.2318 7.77463 49.9391 7.06035C49.6464 6.34606 49.2154 5.69665 48.6709 5.14945C48.1264 4.60224 47.4792 4.16801 46.7663 3.87172C46.0535 3.57542 45.2892 3.42289 44.5172 3.4229C42.9536 3.4229 41.4538 4.04269 40.3463 5.14649C39.2389 6.25029 38.6141 7.74808 38.6089 9.31166C38.6089 11.7043 39.8785 13.7453 42.0611 14.6682V22.4222C40.2531 22.6839 38.4989 23.2345 36.8657 24.0531L15.9914 8.2472C16.1379 7.69543 16.2648 7.12413 16.2648 6.52354C16.2648 2.91997 13.3449 0 9.74131 0C6.13774 0 3.22266 2.91997 3.22266 6.52354C3.22266 10.1271 6.14262 13.0471 9.74619 13.0471C10.9767 13.0471 12.1144 12.6857 13.0959 12.0949L14.4631 13.1301L33.1889 26.6313C32.1977 27.5395 31.2748 28.5747 30.5375 29.7368C29.0434 32.105 28.1303 34.7076 28.1303 37.5494V38.1353C28.1369 40.0626 28.484 41.9735 29.1557 43.78C29.7221 45.323 30.5522 46.7292 31.5825 47.9988L25.3617 54.2342C23.5208 53.5506 21.4554 54.0047 20.0637 55.3963C19.1165 56.3387 18.5842 57.6229 18.5891 58.9609C18.594 60.2988 19.1165 61.5732 20.0686 62.5254C21.0208 63.4775 22.2952 64.0049 23.6331 64.0049C24.971 64.0049 26.2552 63.4775 27.1976 62.5254C28.14 61.5732 28.6771 60.2988 28.6723 58.9609C28.6719 58.4473 28.5928 57.9368 28.4379 57.4472L34.8638 51.0213C35.7427 51.6316 36.6948 52.1443 37.7203 52.5838C39.8278 53.5082 42.1036 53.9869 44.4049 53.9901H44.8444C47.5397 53.9901 50.0837 53.3553 52.4715 52.0613C54.9258 50.7453 56.9879 48.8028 58.4481 46.4314C59.9472 44.0388 60.7675 41.3874 60.7675 38.4723V38.3258C60.7675 35.4595 60.1034 32.8179 58.7167 30.396L58.7264 30.4009ZM50.8796 43.8874C49.1364 45.8259 47.1296 47.0222 44.8639 47.0222H44.4342C43.1403 47.0222 41.8707 46.6657 40.6353 46.0114C39.2808 45.3071 38.133 44.262 37.3052 42.9792C36.4068 41.7096 35.9185 40.3229 35.9185 38.8531V38.4137C35.9185 36.9683 36.1968 35.5962 36.895 34.3023C37.6421 32.8374 38.6529 31.7876 39.9957 30.9136C41.3385 30.0395 42.7203 29.6196 44.2926 29.6196H44.4391C45.8551 29.6196 47.2077 29.8979 48.4773 30.5473C49.7634 31.2238 50.8558 32.217 51.6511 33.4331C52.4386 34.6527 52.9255 36.0416 53.0721 37.4859L53.1062 38.399C53.1062 40.3864 52.3445 42.2272 50.8259 43.8972L50.8796 43.8874Z" fill="#F8761F"/>
</g>
<defs>
<clipPath id="clip0_2188_10375">
<rect width="64" height="64" fill="white"/>
</clipPath>
</defs>
</svg>
